<?xml version="1.0" encoding="UTF-8" standalone="no"?>
<!DOCTYPE svg PUBLIC "-//W3C//DTD SVG 1.1//EN"
 "http://www.w3.org/Graphics/SVG/1.1/DTD/svg11.dtd">
<!-- Generated by graphviz version 2.40.1 (20161225.0304)
 -->
<!-- Title: main Pages: 1 -->
<svg width="482pt" height="264pt"
 viewBox="0.00 0.00 481.85 263.80" xmlns="http://www.w3.org/2000/svg" xmlns:xlink="http://www.w3.org/1999/xlink">
<g id="graph0" class="graph" transform="scale(1 1) rotate(0) translate(4 259.8)">
<title>main</title>
<polygon fill="#ffffff" stroke="transparent" points="-4,4 -4,-259.8 477.8486,-259.8 477.8486,4 -4,4"/>
<!-- ConsoleMenu -->
<g id="node1" class="node">
<title>ConsoleMenu</title>
<polygon fill="none" stroke="#000000" points="466.2403,-36 372.1469,-36 372.1469,0 466.2403,0 466.2403,-36"/>
<text text-anchor="middle" x="419.1936" y="-13.8" font-family="Times,serif" font-size="14.00" fill="#000000">ConsoleMenu</text>
</g>
<!-- NumberSamples -->
<g id="node2" class="node">
<title>NumberSamples</title>
<polygon fill="none" stroke="#000000" points="474.004,-246 364.3832,-246 364.3832,-210 474.004,-210 474.004,-246"/>
<text text-anchor="middle" x="419.1936" y="-223.8" font-family="Times,serif" font-size="14.00" fill="#000000">NumberSamples</text>
</g>
<!-- PlotSamples -->
<g id="node3" class="node">
<title>PlotSamples</title>
<polygon fill="none" stroke="#000000" points="462.195,-126 376.1922,-126 376.1922,-90 462.195,-90 462.195,-126"/>
<text text-anchor="middle" x="419.1936" y="-103.8" font-family="Times,serif" font-size="14.00" fill="#000000">PlotSamples</text>
</g>
<!-- SubMenus -->
<g id="node4" class="node">
<title>SubMenus</title>
<polygon fill="none" stroke="#000000" points="259.2603,-152 183.4873,-152 183.4873,-116 259.2603,-116 259.2603,-152"/>
<text text-anchor="middle" x="221.3738" y="-129.8" font-family="Times,serif" font-size="14.00" fill="#000000">SubMenus</text>
</g>
<!-- SubMenus&#45;&gt;ConsoleMenu -->
<g id="edge2" class="edge">
<title>SubMenus&#45;&gt;ConsoleMenu</title>
<path fill="none" stroke="#000000" d="M236.6065,-115.9583C247.1356,-104.327 261.9647,-89.5051 277.317,-79.2 303.4023,-61.6905 335.3144,-47.3929 362.2623,-37.033"/>
<polygon fill="#000000" stroke="#000000" points="363.8152,-40.1886 371.9459,-33.3957 361.3538,-33.6356 363.8152,-40.1886"/>
<text text-anchor="middle" x="311.9278" y="-84.2" font-family="Times,serif" font-size="14.00" fill="#000000">inheritance</text>
</g>
<!-- SubMenus&#45;&gt;NumberSamples -->
<g id="edge4" class="edge">
<title>SubMenus&#45;&gt;NumberSamples</title>
<path fill="none" stroke="#000000" d="M259.5062,-149.935C284.4791,-160.5864 317.7098,-175.1698 346.5386,-189.2 356.6782,-194.1347 367.4652,-199.7109 377.5387,-205.0653"/>
<polygon fill="#000000" stroke="#000000" points="376.0829,-208.256 386.5501,-209.8953 379.3898,-202.0863 376.0829,-208.256"/>
<text text-anchor="middle" x="311.9278" y="-193.2" font-family="Times,serif" font-size="14.00" fill="#000000">composition</text>
</g>
<!-- SubMenus&#45;&gt;NumberSamples -->
<g id="edge8" class="edge">
<title>SubMenus&#45;&gt;NumberSamples</title>
<path fill="none" stroke="#000000" d="M230.3931,-152.3185C239.711,-169.1686 255.8997,-193.3924 277.317,-206 300.3572,-219.5629 328.997,-225.6225 354.4993,-228.0854"/>
<polygon fill="#000000" stroke="#000000" points="354.2209,-231.5743 364.4688,-228.8853 354.7808,-224.5967 354.2209,-231.5743"/>
<text text-anchor="middle" x="311.9278" y="-230.2" font-family="Times,serif" font-size="14.00" fill="#000000">dependency</text>
</g>
<!-- SubMenus&#45;&gt;PlotSamples -->
<g id="edge5" class="edge">
<title>SubMenus&#45;&gt;PlotSamples</title>
<path fill="none" stroke="#000000" d="M259.3577,-133.337C284.2696,-132.4691 317.4882,-130.4899 346.5386,-126 352.8596,-125.0231 359.4356,-123.7564 365.935,-122.3476"/>
<polygon fill="#000000" stroke="#000000" points="367.0692,-125.6787 376.0376,-120.0379 365.509,-118.8547 367.0692,-125.6787"/>
<text text-anchor="middle" x="311.9278" y="-136.2" font-family="Times,serif" font-size="14.00" fill="#000000">composition</text>
</g>
<!-- SubMenus&#45;&gt;PlotSamples -->
<g id="edge9" class="edge">
<title>SubMenus&#45;&gt;PlotSamples</title>
<path fill="none" stroke="#000000" d="M249.9597,-115.9944C258.4443,-111.5742 267.9744,-107.4637 277.317,-105.2 306.085,-98.2297 339.1015,-98.419 366.0415,-100.5828"/>
<polygon fill="#000000" stroke="#000000" points="365.7703,-104.0725 376.0475,-101.498 366.4079,-97.1016 365.7703,-104.0725"/>
<text text-anchor="middle" x="311.9278" y="-109.2" font-family="Times,serif" font-size="14.00" fill="#000000">dependency</text>
</g>
<!-- MainMenu -->
<g id="node5" class="node">
<title>MainMenu</title>
<polygon fill="none" stroke="#000000" points="78.3138,-109 -.1048,-109 -.1048,-73 78.3138,-73 78.3138,-109"/>
<text text-anchor="middle" x="39.1045" y="-86.8" font-family="Times,serif" font-size="14.00" fill="#000000">MainMenu</text>
</g>
<!-- MainMenu&#45;&gt;ConsoleMenu -->
<g id="edge1" class="edge">
<title>MainMenu&#45;&gt;ConsoleMenu</title>
<path fill="none" stroke="#000000" d="M57.3648,-72.9913C67.9856,-63.3177 82.0404,-51.81 96.209,-44 131.9609,-24.2927 143.1248,-21.6822 183.4306,-15.2 243.6737,-5.5113 313.6948,-8.0549 361.6819,-11.8706"/>
<polygon fill="#000000" stroke="#000000" points="361.6187,-15.3775 371.8766,-12.7267 362.2046,-8.4021 361.6187,-15.3775"/>
<text text-anchor="middle" x="221.3738" y="-20.2" font-family="Times,serif" font-size="14.00" fill="#000000">inheritance</text>
</g>
<!-- MainMenu&#45;&gt;NumberSamples -->
<g id="edge6" class="edge">
<title>MainMenu&#45;&gt;NumberSamples</title>
<path fill="none" stroke="#000000" d="M57.6972,-109.2234C95.283,-144.553 184.6423,-221.078 277.317,-246 302.0784,-252.6588 329.9503,-251.016 354.3937,-246.6858"/>
<polygon fill="#000000" stroke="#000000" points="355.1391,-250.1064 364.2846,-244.7576 353.7996,-243.2358 355.1391,-250.1064"/>
<text text-anchor="middle" x="221.3738" y="-243.2" font-family="Times,serif" font-size="14.00" fill="#000000">dependency</text>
</g>
<!-- MainMenu&#45;&gt;PlotSamples -->
<g id="edge7" class="edge">
<title>MainMenu&#45;&gt;PlotSamples</title>
<path fill="none" stroke="#000000" d="M78.6494,-74.0911C138.374,-51.0789 254.3956,-16.2993 346.5386,-49 365.6118,-55.7689 383.3243,-69.9178 396.4851,-82.6629"/>
<polygon fill="#000000" stroke="#000000" points="394.1624,-85.2916 403.6839,-89.9384 399.1384,-80.3682 394.1624,-85.2916"/>
<text text-anchor="middle" x="221.3738" y="-48.2" font-family="Times,serif" font-size="14.00" fill="#000000">dependency</text>
</g>
<!-- MainMenu&#45;&gt;SubMenus -->
<g id="edge3" class="edge">
<title>MainMenu&#45;&gt;SubMenus</title>
<path fill="none" stroke="#000000" d="M78.6542,-100.3304C106.4707,-106.8927 143.8473,-115.7104 173.3729,-122.6759"/>
<polygon fill="#000000" stroke="#000000" points="172.924,-126.166 183.4605,-125.0557 174.5313,-119.353 172.924,-126.166"/>
<text text-anchor="middle" x="130.8198" y="-124.2" font-family="Times,serif" font-size="14.00" fill="#000000">composition</text>
</g>
</g>
</svg>
