<?xml version="1.0" encoding="UTF-8" standalone="no"?>
<!DOCTYPE svg PUBLIC "-//W3C//DTD SVG 1.1//EN"
 "http://www.w3.org/Graphics/SVG/1.1/DTD/svg11.dtd">
<!-- Generated by graphviz version 2.40.1 (20161225.0304)
 -->
<!-- Title: G Pages: 1 -->
<svg width="876pt" height="679pt"
 viewBox="0.00 0.00 876.07 678.80" xmlns="http://www.w3.org/2000/svg" xmlns:xlink="http://www.w3.org/1999/xlink">
<g id="graph0" class="graph" transform="scale(1 1) rotate(0) translate(4 674.8)">
<title>G</title>
<polygon fill="#ffffff" stroke="transparent" points="-4,4 -4,-674.8 872.0722,-674.8 872.0722,4 -4,4"/>
<g id="clust1" class="cluster">
<title>cluster_init</title>
<polygon fill="none" stroke="#000000" points="14.725,-8 14.725,-592 344.725,-592 344.725,-8 14.725,-8"/>
<text text-anchor="middle" x="179.725" y="-575.4" font-family="Times,serif" font-size="14.00" fill="#000000">__init__</text>
</g>
<!-- number_menu_choices -->
<g id="node1" class="node">
<title>number_menu_choices</title>
<path fill="#ffffff" stroke="#000000" d="M156.8581,-559.2C156.8581,-559.2 34.592,-559.2 34.592,-559.2 28.592,-559.2 22.592,-553.2 22.592,-547.2 22.592,-547.2 22.592,-535.2 22.592,-535.2 22.592,-529.2 28.592,-523.2 34.592,-523.2 34.592,-523.2 156.8581,-523.2 156.8581,-523.2 162.8581,-523.2 168.8581,-529.2 168.8581,-535.2 168.8581,-535.2 168.8581,-547.2 168.8581,-547.2 168.8581,-553.2 162.8581,-559.2 156.8581,-559.2"/>
<text text-anchor="middle" x="95.725" y="-537" font-family="Times,serif" font-size="14.00" fill="#000000">Number Menu Choices</text>
</g>
<!-- sub_menus -->
<g id="node3" class="node">
<title>sub_menus</title>
<path fill="#ffffff" stroke="#000000" d="M196.6124,-416.6C196.6124,-416.6 140.8377,-416.6 140.8377,-416.6 134.8377,-416.6 128.8377,-410.6 128.8377,-404.6 128.8377,-404.6 128.8377,-392.6 128.8377,-392.6 128.8377,-386.6 134.8377,-380.6 140.8377,-380.6 140.8377,-380.6 196.6124,-380.6 196.6124,-380.6 202.6124,-380.6 208.6124,-386.6 208.6124,-392.6 208.6124,-392.6 208.6124,-404.6 208.6124,-404.6 208.6124,-410.6 202.6124,-416.6 196.6124,-416.6"/>
<text text-anchor="middle" x="168.725" y="-394.4" font-family="Times,serif" font-size="14.00" fill="#000000">Sub Menus</text>
</g>
<!-- number_menu_choices&#45;&gt;sub_menus -->
<g id="edge1" class="edge">
<title>number_menu_choices&#45;&gt;sub_menus</title>
<path fill="none" stroke="#000000" d="M104.9705,-523.1396C117.5173,-498.6304 140.0466,-454.6212 154.6872,-426.0219"/>
<polygon fill="#000000" stroke="#000000" points="157.8826,-427.4605 159.324,-416.9642 151.6516,-424.2707 157.8826,-427.4605"/>
</g>
<!-- plot_menu_choices -->
<g id="node2" class="node">
<title>plot_menu_choices</title>
<path fill="#ffffff" stroke="#000000" d="M298.5494,-559.2C298.5494,-559.2 198.9006,-559.2 198.9006,-559.2 192.9006,-559.2 186.9006,-553.2 186.9006,-547.2 186.9006,-547.2 186.9006,-535.2 186.9006,-535.2 186.9006,-529.2 192.9006,-523.2 198.9006,-523.2 198.9006,-523.2 298.5494,-523.2 298.5494,-523.2 304.5494,-523.2 310.5494,-529.2 310.5494,-535.2 310.5494,-535.2 310.5494,-547.2 310.5494,-547.2 310.5494,-553.2 304.5494,-559.2 298.5494,-559.2"/>
<text text-anchor="middle" x="248.725" y="-537" font-family="Times,serif" font-size="14.00" fill="#000000">Plot Menu Choices</text>
</g>
<!-- plot_menu_choices&#45;&gt;sub_menus -->
<g id="edge2" class="edge">
<title>plot_menu_choices&#45;&gt;sub_menus</title>
<path fill="none" stroke="#000000" d="M222.4176,-523.0221C216.2999,-517.8266 210.2588,-511.7714 205.725,-505.2 189.3025,-481.3964 179.5167,-449.5987 174.1743,-426.9416"/>
<polygon fill="#000000" stroke="#000000" points="177.5378,-425.9415 171.9617,-416.9327 170.7028,-427.4525 177.5378,-425.9415"/>
</g>
<!-- number_samples_instance -->
<g id="node4" class="node">
<title>number_samples_instance</title>
<path fill="#ffffff" stroke="#000000" d="M170.6752,-274C170.6752,-274 34.7748,-274 34.7748,-274 28.7748,-274 22.7748,-268 22.7748,-262 22.7748,-262 22.7748,-250 22.7748,-250 22.7748,-244 28.7748,-238 34.7748,-238 34.7748,-238 170.6752,-238 170.6752,-238 176.6752,-238 182.6752,-244 182.6752,-250 182.6752,-250 182.6752,-262 182.6752,-262 182.6752,-268 176.6752,-274 170.6752,-274"/>
<text text-anchor="middle" x="102.725" y="-251.8" font-family="Times,serif" font-size="14.00" fill="#000000">NumberSamples Instance</text>
</g>
<!-- sub_menus&#45;&gt;number_samples_instance -->
<g id="edge3" class="edge">
<title>sub_menus&#45;&gt;number_samples_instance</title>
<path fill="none" stroke="#000000" d="M160.3661,-380.5396C149.0717,-356.1369 128.8304,-312.4035 115.5898,-283.7958"/>
<polygon fill="#000000" stroke="#000000" points="118.6012,-281.9692 111.2246,-274.3642 112.2486,-284.9094 118.6012,-281.9692"/>
</g>
<!-- plot_samples_instance -->
<g id="node5" class="node">
<title>plot_samples_instance</title>
<path fill="#ffffff" stroke="#000000" d="M324.8661,-274C324.8661,-274 212.5839,-274 212.5839,-274 206.5839,-274 200.5839,-268 200.5839,-262 200.5839,-262 200.5839,-250 200.5839,-250 200.5839,-244 206.5839,-238 212.5839,-238 212.5839,-238 324.8661,-238 324.8661,-238 330.8661,-238 336.8661,-244 336.8661,-250 336.8661,-250 336.8661,-262 336.8661,-262 336.8661,-268 330.8661,-274 324.8661,-274"/>
<text text-anchor="middle" x="268.725" y="-251.8" font-family="Times,serif" font-size="14.00" fill="#000000">PlotSamples Instance</text>
</g>
<!-- sub_menus&#45;&gt;plot_samples_instance -->
<g id="edge4" class="edge">
<title>sub_menus&#45;&gt;plot_samples_instance</title>
<path fill="none" stroke="#000000" d="M181.3901,-380.5396C198.7269,-355.8172 229.9772,-311.2544 250.0158,-282.6793"/>
<polygon fill="#000000" stroke="#000000" points="252.9709,-284.5612 255.8469,-274.3642 247.2397,-280.5421 252.9709,-284.5612"/>
</g>
<!-- number_samples -->
<g id="node6" class="node">
<title>number_samples</title>
<path fill="#ffffff" stroke="#000000" d="M215.0352,-163C215.0352,-163 126.4149,-163 126.4149,-163 120.4149,-163 114.4149,-157 114.4149,-151 114.4149,-151 114.4149,-139 114.4149,-139 114.4149,-133 120.4149,-127 126.4149,-127 126.4149,-127 215.0352,-127 215.0352,-127 221.0352,-127 227.0352,-133 227.0352,-139 227.0352,-139 227.0352,-151 227.0352,-151 227.0352,-157 221.0352,-163 215.0352,-163"/>
<text text-anchor="middle" x="170.725" y="-140.8" font-family="Times,serif" font-size="14.00" fill="#000000">Number Samples</text>
</g>
<!-- number_samples_instance&#45;&gt;number_samples -->
<g id="edge5" class="edge">
<title>number_samples_instance&#45;&gt;number_samples</title>
<path fill="none" stroke="#000000" d="M113.9538,-237.6706C124.929,-219.7552 141.7629,-192.2764 154.253,-171.8881"/>
<polygon fill="#000000" stroke="#000000" points="157.2401,-173.7121 159.4795,-163.3566 151.2711,-170.0554 157.2401,-173.7121"/>
</g>
<!-- plot_samples -->
<g id="node7" class="node">
<title>plot_samples</title>
<path fill="#ffffff" stroke="#000000" d="M322.2278,-163C322.2278,-163 257.2222,-163 257.2222,-163 251.2222,-163 245.2222,-157 245.2222,-151 245.2222,-151 245.2222,-139 245.2222,-139 245.2222,-133 251.2222,-127 257.2222,-127 257.2222,-127 322.2278,-127 322.2278,-127 328.2278,-127 334.2278,-133 334.2278,-139 334.2278,-139 334.2278,-151 334.2278,-151 334.2278,-157 328.2278,-163 322.2278,-163"/>
<text text-anchor="middle" x="289.725" y="-140.8" font-family="Times,serif" font-size="14.00" fill="#000000">Plot Samples</text>
</g>
<!-- plot_samples_instance&#45;&gt;plot_samples -->
<g id="edge6" class="edge">
<title>plot_samples_instance&#45;&gt;plot_samples</title>
<path fill="none" stroke="#000000" d="M272.1927,-237.6706C275.5061,-220.1569 280.5486,-193.5039 284.3766,-173.2701"/>
<polygon fill="#000000" stroke="#000000" points="287.8321,-173.833 286.2521,-163.3566 280.9541,-172.5317 287.8321,-173.833"/>
</g>
<!-- sample_groups -->
<g id="node8" class="node">
<title>sample_groups</title>
<path fill="#ffffff" stroke="#000000" d="M324.9302,-52C324.9302,-52 246.5198,-52 246.5198,-52 240.5198,-52 234.5198,-46 234.5198,-40 234.5198,-40 234.5198,-28 234.5198,-28 234.5198,-22 240.5198,-16 246.5198,-16 246.5198,-16 324.9302,-16 324.9302,-16 330.9302,-16 336.9302,-22 336.9302,-28 336.9302,-28 336.9302,-40 336.9302,-40 336.9302,-46 330.9302,-52 324.9302,-52"/>
<text text-anchor="middle" x="285.725" y="-29.8" font-family="Times,serif" font-size="14.00" fill="#000000">Sample Groups</text>
</g>
<!-- number_samples&#45;&gt;sample_groups -->
<g id="edge7" class="edge">
<title>number_samples&#45;&gt;sample_groups</title>
<path fill="none" stroke="#000000" d="M189.4577,-126.9189C208.5037,-108.5354 238.1717,-79.8993 259.5388,-59.2753"/>
<polygon fill="#000000" stroke="#000000" points="262.2359,-61.5365 267.0003,-52.0734 257.3745,-56.4999 262.2359,-61.5365"/>
</g>
<!-- plot_samples&#45;&gt;sample_groups -->
<g id="edge8" class="edge">
<title>plot_samples&#45;&gt;sample_groups</title>
<path fill="none" stroke="#000000" d="M289.0645,-126.6706C288.4363,-109.2373 287.4817,-82.7482 286.7538,-62.5489"/>
<polygon fill="#000000" stroke="#000000" points="290.2445,-62.2241 286.3865,-52.3566 283.249,-62.4762 290.2445,-62.2241"/>
</g>
<!-- init -->
<g id="node9" class="node">
<title>init</title>
<path fill="#ffffff" stroke="#000000" d="M410.725,-670.8C410.725,-670.8 380.725,-670.8 380.725,-670.8 374.725,-670.8 368.725,-664.8 368.725,-658.8 368.725,-658.8 368.725,-646.8 368.725,-646.8 368.725,-640.8 374.725,-634.8 380.725,-634.8 380.725,-634.8 410.725,-634.8 410.725,-634.8 416.725,-634.8 422.725,-640.8 422.725,-646.8 422.725,-646.8 422.725,-658.8 422.725,-658.8 422.725,-664.8 416.725,-670.8 410.725,-670.8"/>
<text text-anchor="middle" x="395.725" y="-648.6" font-family="Times,serif" font-size="14.00" fill="#000000">init</text>
</g>
<!-- init&#45;&gt;number_menu_choices -->
<g id="edge9" class="edge">
<title>init&#45;&gt;number_menu_choices</title>
<path fill="none" stroke="#000000" d="M368.5159,-652.3555C284.0697,-650.6972 30.6492,-643.517 6.288,-616.8 -11.6354,-597.1433 12.1246,-577.8314 39.6418,-563.6466"/>
<polygon fill="#000000" stroke="#000000" points="41.2203,-566.7708 48.6598,-559.2274 38.1399,-560.485 41.2203,-566.7708"/>
<text text-anchor="middle" x="92.4435" y="-604.2" font-family="Times,serif" font-size="14.00" fill="#000000">Define number_menu_choices</text>
</g>
<!-- init&#45;&gt;plot_menu_choices -->
<g id="edge10" class="edge">
<title>init&#45;&gt;plot_menu_choices</title>
<path fill="none" stroke="#000000" d="M368.6101,-652.2704C317.5418,-650.6385 210.1599,-643.9787 187.2726,-616.8 172.9091,-599.7432 189.6372,-580.2046 209.243,-565.264"/>
<polygon fill="#000000" stroke="#000000" points="211.3634,-568.0502 217.4368,-559.3689 207.2752,-562.368 211.3634,-568.0502"/>
<text text-anchor="middle" x="261.9512" y="-604.2" font-family="Times,serif" font-size="14.00" fill="#000000">Define plot_menu_choices</text>
</g>
<!-- init&#45;&gt;sub_menus -->
<g id="edge11" class="edge">
<title>init&#45;&gt;sub_menus</title>
<path fill="none" stroke="#000000" d="M379.2704,-634.767C374.6032,-629.2144 369.7117,-622.9416 365.725,-616.8 340.4874,-577.9207 355.7131,-552.4128 319.725,-523.2 294.5901,-502.7971 276.0963,-523.1332 249.1436,-505.2 219.1551,-485.2469 195.945,-450.2462 182.332,-425.8137"/>
<polygon fill="#000000" stroke="#000000" points="185.2482,-423.8471 177.4248,-416.7025 179.0853,-427.1665 185.2482,-423.8471"/>
<text text-anchor="middle" x="301.0157" y="-492.6" font-family="Times,serif" font-size="14.00" fill="#000000">Define sub_menus</text>
</g>
<!-- init&#45;&gt;number_samples_instance -->
<g id="edge12" class="edge">
<title>init&#45;&gt;number_samples_instance</title>
<path fill="none" stroke="#000000" d="M396.4419,-634.5653C396.7331,-601.0724 392.4345,-529.4362 353.725,-488.4 316.5572,-448.9981 275.2338,-490.3606 237.6036,-451.4 203.4543,-416.0433 232.6106,-386.2804 204.725,-345.8 186.8831,-319.8997 159.9651,-296.6237 138.2612,-280.2619"/>
<polygon fill="#000000" stroke="#000000" points="140.054,-277.2354 129.927,-274.1216 135.9019,-282.8711 140.054,-277.2354"/>
<text text-anchor="middle" x="314.2857" y="-438.8" font-family="Times,serif" font-size="14.00" fill="#000000">Instantiate NumberSamples</text>
</g>
<!-- init&#45;&gt;plot_samples_instance -->
<g id="edge13" class="edge">
<title>init&#45;&gt;plot_samples_instance</title>
<path fill="none" stroke="#000000" d="M400.717,-634.7903C406.3464,-612.8616 414.725,-574.6114 414.725,-541.2 414.725,-541.2 414.725,-541.2 414.725,-327.3 414.725,-308.9798 377.1377,-290.8946 340.1061,-277.5225"/>
<polygon fill="#000000" stroke="#000000" points="340.8138,-274.0617 330.219,-274.0538 338.4964,-280.667 340.8138,-274.0617"/>
<text text-anchor="middle" x="480.6314" y="-438.8" font-family="Times,serif" font-size="14.00" fill="#000000">Instantiate PlotSamples</text>
</g>
<!-- init&#45;&gt;number_samples -->
<g id="edge14" class="edge">
<title>init&#45;&gt;number_samples</title>
<path fill="none" stroke="#000000" d="M416.1054,-634.7672C451.1098,-602.2672 521.4253,-529.9047 547.725,-451.4 567.4429,-392.542 460.791,-377.4932 453.2726,-362.6 446.2016,-348.5928 452.725,-342.9908 452.725,-327.3 452.725,-327.3 452.725,-327.3 452.725,-200.5 452.725,-154.2393 301.4811,-171.5002 237.537,-162.8233"/>
<polygon fill="#000000" stroke="#000000" points="237.8162,-159.319 227.362,-161.0397 236.6075,-166.2138 237.8162,-159.319"/>
<text text-anchor="middle" x="520.9512" y="-350" font-family="Times,serif" font-size="14.00" fill="#000000">Define number_samples</text>
</g>
<!-- init&#45;&gt;plot_samples -->
<g id="edge15" class="edge">
<title>init&#45;&gt;plot_samples</title>
<path fill="none" stroke="#000000" d="M422.7826,-650.3552C467.009,-645.8813 552.2198,-635.1137 575.725,-616.8 605.0815,-593.9274 611.725,-578.4151 611.725,-541.2 611.725,-541.2 611.725,-541.2 611.725,-200.5 611.725,-173.7081 436.3683,-156.2344 344.4676,-148.9165"/>
<polygon fill="#000000" stroke="#000000" points="344.7403,-145.4272 334.4977,-148.1364 344.1942,-152.4059 344.7403,-145.4272"/>
<text text-anchor="middle" x="669.4589" y="-350" font-family="Times,serif" font-size="14.00" fill="#000000">Define plot_samples</text>
</g>
<!-- init&#45;&gt;sample_groups -->
<g id="edge16" class="edge">
<title>init&#45;&gt;sample_groups</title>
<path fill="none" stroke="#000000" d="M422.8751,-649.9722C504.4413,-640.7325 741.725,-608.1038 741.725,-541.2 741.725,-541.2 741.725,-541.2 741.725,-89.5 741.725,-50.2301 471.7934,-38.5341 347.2936,-35.2281"/>
<polygon fill="#000000" stroke="#000000" points="347.2338,-31.7255 337.1476,-34.9687 347.0549,-38.7232 347.2338,-31.7255"/>
<text text-anchor="middle" x="804.8986" y="-296.2" font-family="Times,serif" font-size="14.00" fill="#000000">Define sample_groups</text>
</g>
</g>
</svg>
