<?xml version="1.0" encoding="UTF-8" standalone="no"?>
<!DOCTYPE svg PUBLIC "-//W3C//DTD SVG 1.1//EN"
 "http://www.w3.org/Graphics/SVG/1.1/DTD/svg11.dtd">
<!-- Generated by graphviz version 2.40.1 (20161225.0304)
 -->
<!-- Title: G Pages: 1 -->
<svg width="714pt" height="431pt"
 viewBox="0.00 0.00 713.50 430.80" xmlns="http://www.w3.org/2000/svg" xmlns:xlink="http://www.w3.org/1999/xlink">
<g id="graph0" class="graph" transform="scale(1 1) rotate(0) translate(4 426.8)">
<title>G</title>
<polygon fill="#ffffff" stroke="transparent" points="-4,4 -4,-426.8 709.5,-426.8 709.5,4 -4,4"/>
<!-- SubMenus -->
<g id="node1" class="node">
<title>SubMenus</title>
<polygon fill="#ffffff" stroke="#000000" points="154.5,-172.3 154.5,-422.3 705.5,-422.3 705.5,-172.3 154.5,-172.3"/>
<polygon fill="none" stroke="#000000" points="163,-396.3 163,-418.3 698,-418.3 698,-396.3 163,-396.3"/>
<text text-anchor="start" x="400.5568" y="-402.7" font-family="Times,serif" font-size="14.00" fill="#000000">SubMenus</text>
<polygon fill="none" stroke="#000000" points="163,-374.3 163,-396.3 698,-396.3 698,-374.3 163,-374.3"/>
<text text-anchor="start" x="318.5364" y="-380.7" font-family="Times,serif" font-size="14.00" fill="#000000">+ number_menu_choices : List&lt;String&gt;</text>
<polygon fill="none" stroke="#000000" points="163,-352.3 163,-374.3 698,-374.3 698,-352.3 163,-352.3"/>
<text text-anchor="start" x="329.0287" y="-358.7" font-family="Times,serif" font-size="14.00" fill="#000000">+ plot_menu_choices : List&lt;String&gt;</text>
<polygon fill="none" stroke="#000000" points="163,-330.3 163,-352.3 698,-352.3 698,-330.3 163,-330.3"/>
<text text-anchor="start" x="333.1804" y="-336.7" font-family="Times,serif" font-size="14.00" fill="#000000">+ sub_menus : List&lt;List&lt;String&gt;&gt;</text>
<polygon fill="none" stroke="#000000" points="163,-308.3 163,-330.3 698,-330.3 698,-308.3 163,-308.3"/>
<text text-anchor="start" x="298.8349" y="-314.7" font-family="Times,serif" font-size="14.00" fill="#000000">+ number_samples_instance : NumberSamples</text>
<polygon fill="none" stroke="#000000" points="163,-286.3 163,-308.3 698,-308.3 698,-286.3 163,-286.3"/>
<text text-anchor="start" x="320.9815" y="-292.7" font-family="Times,serif" font-size="14.00" fill="#000000">+ plot_samples_instance : PlotSamples</text>
<polygon fill="none" stroke="#000000" points="163,-264.3 163,-286.3 698,-286.3 698,-264.3 163,-264.3"/>
<text text-anchor="start" x="252.9779" y="-270.7" font-family="Times,serif" font-size="14.00" fill="#000000">+ number_samples : Dict&lt;Int, List&lt;Union&lt;String, Lambda&gt;&gt;&gt;</text>
<polygon fill="none" stroke="#000000" points="163,-242.3 163,-264.3 698,-264.3 698,-242.3 163,-242.3"/>
<text text-anchor="start" x="263.4702" y="-248.7" font-family="Times,serif" font-size="14.00" fill="#000000">+ plot_samples : Dict&lt;Int, List&lt;Union&lt;String, Lambda&gt;&gt;&gt;</text>
<polygon fill="none" stroke="#000000" points="163,-220.3 163,-242.3 698,-242.3 698,-220.3 163,-220.3"/>
<text text-anchor="start" x="165.9672" y="-226.7" font-family="Times,serif" font-size="14.00" fill="#000000">+ sample_groups : Dict&lt;Int, List&lt;Union&lt;String, Dict&lt;Int, List&lt;Union&lt;String, Lambda&gt;&gt;&gt;&gt;&gt;</text>
<polygon fill="none" stroke="#000000" points="163,-198.3 163,-220.3 698,-220.3 698,-198.3 163,-198.3"/>
<text text-anchor="start" x="378.9156" y="-204.7" font-family="Times,serif" font-size="14.00" fill="#000000">+ __init__() : void</text>
<polygon fill="none" stroke="#000000" points="163,-176.3 163,-198.3 698,-198.3 698,-176.3 163,-176.3"/>
<text text-anchor="start" x="288.9054" y="-182.7" font-family="Times,serif" font-size="14.00" fill="#000000">+ group_selection_submenu(sub_menu: int) : void</text>
</g>
<!-- ConsoleMenu -->
<g id="node2" class="node">
<title>ConsoleMenu</title>
<polygon fill="#ffffff" stroke="#000000" points="0,-.5 0,-118.5 326,-118.5 326,-.5 0,-.5"/>
<polygon fill="none" stroke="#000000" points="8,-92.5 8,-114.5 318,-114.5 318,-92.5 8,-92.5"/>
<text text-anchor="start" x="123.7272" y="-98.9" font-family="Times,serif" font-size="14.00" fill="#000000">ConsoleMenu</text>
<polygon fill="none" stroke="#000000" points="8,-70.5 8,-92.5 318,-92.5 318,-70.5 8,-70.5"/>
<text text-anchor="start" x="80.5715" y="-76.9" font-family="Times,serif" font-size="14.00" fill="#000000">input_number(prompt) : float</text>
<polygon fill="none" stroke="#000000" points="8,-48.5 8,-70.5 318,-70.5 318,-48.5 8,-48.5"/>
<text text-anchor="start" x="101.176" y="-54.9" font-family="Times,serif" font-size="14.00" fill="#000000">display_menu() : void</text>
<polygon fill="none" stroke="#000000" points="8,-26.5 8,-48.5 318,-48.5 318,-26.5 8,-26.5"/>
<text text-anchor="start" x="100.0238" y="-32.9" font-family="Times,serif" font-size="14.00" fill="#000000">get_user_choice() : int</text>
<polygon fill="none" stroke="#000000" points="8,-4.5 8,-26.5 318,-26.5 318,-4.5 8,-4.5"/>
<text text-anchor="start" x="10.7143" y="-10.9" font-family="Times,serif" font-size="14.00" fill="#000000">+ __init__(menu_name: str, menu_choices: list) : void</text>
</g>
<!-- SubMenus&#45;&gt;ConsoleMenu -->
<g id="edge1" class="edge">
<title>SubMenus&#45;&gt;ConsoleMenu</title>
<path fill="none" stroke="#000000" d="M289.4629,-172.1325C271.4327,-156.0741 253.5741,-140.1686 237.2076,-125.592"/>
<polygon fill="#000000" stroke="#000000" points="239.0943,-122.5854 229.2988,-118.5482 234.4386,-127.8128 239.0943,-122.5854"/>
<text text-anchor="middle" x="285.9958" y="-141.2" font-family="Times,serif" font-size="14.00" fill="#000000">inherits</text>
</g>
<!-- NumberSamples -->
<g id="node3" class="node">
<title>NumberSamples</title>
<polygon fill="#ffffff" stroke="#000000" points="344.5,-11.5 344.5,-107.5 515.5,-107.5 515.5,-11.5 344.5,-11.5"/>
<polygon fill="none" stroke="#000000" points="353,-81.5 353,-103.5 508,-103.5 508,-81.5 353,-81.5"/>
<text text-anchor="start" x="383.845" y="-87.9" font-family="Times,serif" font-size="14.00" fill="#000000">NumberSamples</text>
<polygon fill="none" stroke="#000000" points="353,-59.5 353,-81.5 508,-81.5 508,-59.5 353,-59.5"/>
<text text-anchor="start" x="355.6602" y="-65.9" font-family="Times,serif" font-size="14.00" fill="#000000">fiboTriangle(n: int) : None</text>
<polygon fill="none" stroke="#000000" points="353,-37.5 353,-59.5 508,-59.5 508,-37.5 353,-37.5"/>
<text text-anchor="start" x="356.6388" y="-43.9" font-family="Times,serif" font-size="14.00" fill="#000000">getNumberTypes() : None</text>
<polygon fill="none" stroke="#000000" points="353,-15.5 353,-37.5 508,-37.5 508,-15.5 353,-15.5"/>
<text text-anchor="start" x="378.9156" y="-21.9" font-family="Times,serif" font-size="14.00" fill="#000000">+ __init__() : void</text>
</g>
<!-- SubMenus&#45;&gt;NumberSamples -->
<g id="edge2" class="edge">
<title>SubMenus&#45;&gt;NumberSamples</title>
<path fill="none" stroke="#000000" d="M430,-172.1325C430,-153.1369 430,-134.3553 430,-117.7341"/>
<polygon fill="#000000" stroke="#000000" points="433.5001,-117.6816 430,-107.6817 426.5001,-117.6817 433.5001,-117.6816"/>
<text text-anchor="middle" x="453.3275" y="-141.2" font-family="Times,serif" font-size="14.00" fill="#000000">contains</text>
</g>
<!-- PlotSamples -->
<g id="node4" class="node">
<title>PlotSamples</title>
<polygon fill="#ffffff" stroke="#000000" points="533.5,-22.5 533.5,-96.5 658.5,-96.5 658.5,-22.5 533.5,-22.5"/>
<polygon fill="none" stroke="#000000" points="542,-70.5 542,-92.5 651,-92.5 651,-70.5 542,-70.5"/>
<text text-anchor="start" x="561.4993" y="-76.9" font-family="Times,serif" font-size="14.00" fill="#000000">PlotSamples</text>
<polygon fill="none" stroke="#000000" points="542,-48.5 542,-70.5 651,-70.5 651,-48.5 542,-48.5"/>
<text text-anchor="start" x="549.4523" y="-54.9" font-family="Times,serif" font-size="14.00" fill="#000000">plotting() : None</text>
<polygon fill="none" stroke="#000000" points="542,-26.5 542,-48.5 651,-48.5 651,-26.5 542,-26.5"/>
<text text-anchor="start" x="544.9156" y="-32.9" font-family="Times,serif" font-size="14.00" fill="#000000">+ __init__() : void</text>
</g>
<!-- SubMenus&#45;&gt;PlotSamples -->
<g id="edge3" class="edge">
<title>SubMenus&#45;&gt;PlotSamples</title>
<path fill="none" stroke="#000000" d="M517.3751,-172.1325C534.181,-148.0576 550.7469,-124.3264 564.3068,-104.9015"/>
<polygon fill="#000000" stroke="#000000" points="567.2661,-106.7768 570.1202,-96.5736 561.5262,-102.77 567.2661,-106.7768"/>
<text text-anchor="middle" x="560.3275" y="-141.2" font-family="Times,serif" font-size="14.00" fill="#000000">contains</text>
</g>
</g>
</svg>
