<?xml version="1.0" encoding="UTF-8" standalone="no"?>
<!DOCTYPE svg PUBLIC "-//W3C//DTD SVG 1.1//EN"
 "http://www.w3.org/Graphics/SVG/1.1/DTD/svg11.dtd">
<!-- Generated by graphviz version 2.40.1 (20161225.0304)
 -->
<!-- Title: G Pages: 1 -->
<svg width="1364pt" height="283pt"
 viewBox="0.00 0.00 1364.00 282.60" xmlns="http://www.w3.org/2000/svg" xmlns:xlink="http://www.w3.org/1999/xlink">
<g id="graph0" class="graph" transform="scale(1 1) rotate(0) translate(4 278.6)">
<title>G</title>
<polygon fill="#ffffff" stroke="transparent" points="-4,4 -4,-278.6 1360,-278.6 1360,4 -4,4"/>
<g id="clust1" class="cluster">
<title>cluster_group_selection_submenu</title>
<polygon fill="none" stroke="#000000" points="8,-8 8,-211.6 1348,-211.6 1348,-8 8,-8"/>
<text text-anchor="middle" x="678" y="-195" font-family="Times,serif" font-size="14.00" fill="#000000">group_selection_submenu</text>
</g>
<!-- get_selected_menu_name -->
<g id="node1" class="node">
<title>get_selected_menu_name</title>
<path fill="#ffffff" stroke="#000000" d="M164.2212,-178.8C164.2212,-178.8 27.7788,-178.8 27.7788,-178.8 21.7788,-178.8 15.7788,-172.8 15.7788,-166.8 15.7788,-166.8 15.7788,-154.8 15.7788,-154.8 15.7788,-148.8 21.7788,-142.8 27.7788,-142.8 27.7788,-142.8 164.2212,-142.8 164.2212,-142.8 170.2212,-142.8 176.2212,-148.8 176.2212,-154.8 176.2212,-154.8 176.2212,-166.8 176.2212,-166.8 176.2212,-172.8 170.2212,-178.8 164.2212,-178.8"/>
<text text-anchor="middle" x="96" y="-156.6" font-family="Times,serif" font-size="14.00" fill="#000000">Get selected_menu_name</text>
</g>
<!-- get_selected_sub_menu_items -->
<g id="node2" class="node">
<title>get_selected_sub_menu_items</title>
<path fill="#ffffff" stroke="#000000" d="M368.1771,-178.8C368.1771,-178.8 205.8229,-178.8 205.8229,-178.8 199.8229,-178.8 193.8229,-172.8 193.8229,-166.8 193.8229,-166.8 193.8229,-154.8 193.8229,-154.8 193.8229,-148.8 199.8229,-142.8 205.8229,-142.8 205.8229,-142.8 368.1771,-142.8 368.1771,-142.8 374.1771,-142.8 380.1771,-148.8 380.1771,-154.8 380.1771,-154.8 380.1771,-166.8 380.1771,-166.8 380.1771,-172.8 374.1771,-178.8 368.1771,-178.8"/>
<text text-anchor="middle" x="287" y="-156.6" font-family="Times,serif" font-size="14.00" fill="#000000">Get selected_sub_menu_items</text>
</g>
<!-- super_init -->
<g id="node3" class="node">
<title>super_init</title>
<path fill="#ffffff" stroke="#000000" d="M501.6341,-178.8C501.6341,-178.8 410.3659,-178.8 410.3659,-178.8 404.3659,-178.8 398.3659,-172.8 398.3659,-166.8 398.3659,-166.8 398.3659,-154.8 398.3659,-154.8 398.3659,-148.8 404.3659,-142.8 410.3659,-142.8 410.3659,-142.8 501.6341,-142.8 501.6341,-142.8 507.6341,-142.8 513.6341,-148.8 513.6341,-154.8 513.6341,-154.8 513.6341,-166.8 513.6341,-166.8 513.6341,-172.8 507.6341,-178.8 501.6341,-178.8"/>
<text text-anchor="middle" x="456" y="-156.6" font-family="Times,serif" font-size="14.00" fill="#000000">super().__init__()</text>
</g>
<!-- display_menu -->
<g id="node4" class="node">
<title>display_menu</title>
<path fill="#ffffff" stroke="#000000" d="M614.1523,-178.8C614.1523,-178.8 543.8477,-178.8 543.8477,-178.8 537.8477,-178.8 531.8477,-172.8 531.8477,-166.8 531.8477,-166.8 531.8477,-154.8 531.8477,-154.8 531.8477,-148.8 537.8477,-142.8 543.8477,-142.8 543.8477,-142.8 614.1523,-142.8 614.1523,-142.8 620.1523,-142.8 626.1523,-148.8 626.1523,-154.8 626.1523,-154.8 626.1523,-166.8 626.1523,-166.8 626.1523,-172.8 620.1523,-178.8 614.1523,-178.8"/>
<text text-anchor="middle" x="579" y="-156.6" font-family="Times,serif" font-size="14.00" fill="#000000">Display menu</text>
</g>
<!-- get_user_choice -->
<g id="node5" class="node">
<title>get_user_choice</title>
<path fill="#ffffff" stroke="#000000" d="M745.6713,-178.8C745.6713,-178.8 656.3287,-178.8 656.3287,-178.8 650.3287,-178.8 644.3287,-172.8 644.3287,-166.8 644.3287,-166.8 644.3287,-154.8 644.3287,-154.8 644.3287,-148.8 650.3287,-142.8 656.3287,-142.8 656.3287,-142.8 745.6713,-142.8 745.6713,-142.8 751.6713,-142.8 757.6713,-148.8 757.6713,-154.8 757.6713,-154.8 757.6713,-166.8 757.6713,-166.8 757.6713,-172.8 751.6713,-178.8 745.6713,-178.8"/>
<text text-anchor="middle" x="701" y="-156.6" font-family="Times,serif" font-size="14.00" fill="#000000">Get user&#39;s choice</text>
</g>
<!-- condition -->
<g id="node6" class="node">
<title>condition</title>
<path fill="#ffffff" stroke="#000000" d="M872.5489,-178.8C872.5489,-178.8 787.4511,-178.8 787.4511,-178.8 781.4511,-178.8 775.4511,-172.8 775.4511,-166.8 775.4511,-166.8 775.4511,-154.8 775.4511,-154.8 775.4511,-148.8 781.4511,-142.8 787.4511,-142.8 787.4511,-142.8 872.5489,-142.8 872.5489,-142.8 878.5489,-142.8 884.5489,-148.8 884.5489,-154.8 884.5489,-154.8 884.5489,-166.8 884.5489,-166.8 884.5489,-172.8 878.5489,-178.8 872.5489,-178.8"/>
<text text-anchor="middle" x="830" y="-156.6" font-family="Times,serif" font-size="14.00" fill="#000000">Choice == Quit?</text>
</g>
<!-- break -->
<g id="node10" class="node">
<title>break</title>
<path fill="#ffffff" stroke="#000000" d="M845,-52C845,-52 815,-52 815,-52 809,-52 803,-46 803,-40 803,-40 803,-28 803,-28 803,-22 809,-16 815,-16 815,-16 845,-16 845,-16 851,-16 857,-22 857,-28 857,-28 857,-40 857,-40 857,-46 851,-52 845,-52"/>
<text text-anchor="middle" x="830" y="-29.8" font-family="Times,serif" font-size="14.00" fill="#000000">break</text>
</g>
<!-- condition&#45;&gt;break -->
<g id="edge10" class="edge">
<title>condition&#45;&gt;break</title>
<path fill="none" stroke="#000000" d="M830,-142.6327C830,-121.6352 830,-86.8261 830,-62.279"/>
<polygon fill="#000000" stroke="#000000" points="833.5001,-62.1336 830,-52.1336 826.5001,-62.1337 833.5001,-62.1336"/>
<text text-anchor="middle" x="843.2139" y="-93.2" font-family="Times,serif" font-size="14.00" fill="#000000">True</text>
</g>
<!-- print_sample_results -->
<g id="node7" class="node">
<title>print_sample_results</title>
<path fill="#ffffff" stroke="#000000" d="M1023.9397,-178.8C1023.9397,-178.8 914.0603,-178.8 914.0603,-178.8 908.0603,-178.8 902.0603,-172.8 902.0603,-166.8 902.0603,-166.8 902.0603,-154.8 902.0603,-154.8 902.0603,-148.8 908.0603,-142.8 914.0603,-142.8 914.0603,-142.8 1023.9397,-142.8 1023.9397,-142.8 1029.9397,-142.8 1035.9397,-148.8 1035.9397,-154.8 1035.9397,-154.8 1035.9397,-166.8 1035.9397,-166.8 1035.9397,-172.8 1029.9397,-178.8 1023.9397,-178.8"/>
<text text-anchor="middle" x="969" y="-156.6" font-family="Times,serif" font-size="14.00" fill="#000000">Print Sample Results</text>
</g>
<!-- get_current_selection -->
<g id="node8" class="node">
<title>get_current_selection</title>
<path fill="#ffffff" stroke="#000000" d="M1178.113,-178.8C1178.113,-178.8 1065.887,-178.8 1065.887,-178.8 1059.887,-178.8 1053.887,-172.8 1053.887,-166.8 1053.887,-166.8 1053.887,-154.8 1053.887,-154.8 1053.887,-148.8 1059.887,-142.8 1065.887,-142.8 1065.887,-142.8 1178.113,-142.8 1178.113,-142.8 1184.113,-142.8 1190.113,-148.8 1190.113,-154.8 1190.113,-154.8 1190.113,-166.8 1190.113,-166.8 1190.113,-172.8 1184.113,-178.8 1178.113,-178.8"/>
<text text-anchor="middle" x="1122" y="-156.6" font-family="Times,serif" font-size="14.00" fill="#000000">Get current_selection</text>
</g>
<!-- call_sample_function -->
<g id="node9" class="node">
<title>call_sample_function</title>
<path fill="#ffffff" stroke="#000000" d="M1328.1443,-178.8C1328.1443,-178.8 1219.8557,-178.8 1219.8557,-178.8 1213.8557,-178.8 1207.8557,-172.8 1207.8557,-166.8 1207.8557,-166.8 1207.8557,-154.8 1207.8557,-154.8 1207.8557,-148.8 1213.8557,-142.8 1219.8557,-142.8 1219.8557,-142.8 1328.1443,-142.8 1328.1443,-142.8 1334.1443,-142.8 1340.1443,-148.8 1340.1443,-154.8 1340.1443,-154.8 1340.1443,-166.8 1340.1443,-166.8 1340.1443,-172.8 1334.1443,-178.8 1328.1443,-178.8"/>
<text text-anchor="middle" x="1274" y="-156.6" font-family="Times,serif" font-size="14.00" fill="#000000">Call sample function</text>
</g>
<!-- group_selection_submenu -->
<g id="node11" class="node">
<title>group_selection_submenu</title>
<path fill="#ffffff" stroke="#000000" d="M770.4706,-274.6C770.4706,-274.6 631.5294,-274.6 631.5294,-274.6 625.5294,-274.6 619.5294,-268.6 619.5294,-262.6 619.5294,-262.6 619.5294,-250.6 619.5294,-250.6 619.5294,-244.6 625.5294,-238.6 631.5294,-238.6 631.5294,-238.6 770.4706,-238.6 770.4706,-238.6 776.4706,-238.6 782.4706,-244.6 782.4706,-250.6 782.4706,-250.6 782.4706,-262.6 782.4706,-262.6 782.4706,-268.6 776.4706,-274.6 770.4706,-274.6"/>
<text text-anchor="middle" x="701" y="-252.4" font-family="Times,serif" font-size="14.00" fill="#000000">group_selection_submenu</text>
</g>
<!-- group_selection_submenu&#45;&gt;get_selected_menu_name -->
<g id="edge1" class="edge">
<title>group_selection_submenu&#45;&gt;get_selected_menu_name</title>
<path fill="none" stroke="#000000" d="M619.4877,-253.7472C495.0392,-248.674 263.8042,-236.2212 185,-211.6 165.3702,-205.467 145.3217,-194.5151 129.2349,-184.3466"/>
<polygon fill="#000000" stroke="#000000" points="131.0236,-181.3348 120.7331,-178.8136 127.2054,-187.2018 131.0236,-181.3348"/>
</g>
<!-- group_selection_submenu&#45;&gt;get_selected_sub_menu_items -->
<g id="edge2" class="edge">
<title>group_selection_submenu&#45;&gt;get_selected_sub_menu_items</title>
<path fill="none" stroke="#000000" d="M619.2772,-251.9514C555.403,-246.6256 465.0087,-235.334 389,-211.6 367.353,-204.8406 344.6402,-193.9488 326.1567,-183.9807"/>
<polygon fill="#000000" stroke="#000000" points="327.6235,-180.7928 317.176,-179.0319 324.245,-186.9236 327.6235,-180.7928"/>
</g>
<!-- group_selection_submenu&#45;&gt;super_init -->
<g id="edge3" class="edge">
<title>group_selection_submenu&#45;&gt;super_init</title>
<path fill="none" stroke="#000000" d="M619.3064,-243.1384C588.1912,-236.182 553.0197,-226.0337 523,-211.6 508.9203,-204.8303 494.903,-194.8424 483.3567,-185.5102"/>
<polygon fill="#000000" stroke="#000000" points="485.3405,-182.607 475.4204,-178.8862 480.855,-187.9811 485.3405,-182.607"/>
</g>
<!-- group_selection_submenu&#45;&gt;display_menu -->
<g id="edge4" class="edge">
<title>group_selection_submenu&#45;&gt;display_menu</title>
<path fill="none" stroke="#000000" d="M672.4491,-238.3842C660.5985,-230.5056 646.8712,-220.9584 635,-211.6 624.8526,-203.6005 614.229,-194.2419 604.9958,-185.7521"/>
<polygon fill="#000000" stroke="#000000" points="607.3119,-183.1263 597.6079,-178.8739 602.542,-188.2497 607.3119,-183.1263"/>
</g>
<!-- group_selection_submenu&#45;&gt;get_user_choice -->
<g id="edge5" class="edge">
<title>group_selection_submenu&#45;&gt;get_user_choice</title>
<path fill="none" stroke="#000000" d="M701,-238.5808C701,-224.7527 701,-205.393 701,-189.4477"/>
<polygon fill="#000000" stroke="#000000" points="704.5001,-189.0641 701,-179.0642 697.5001,-189.0642 704.5001,-189.0641"/>
</g>
<!-- group_selection_submenu&#45;&gt;condition -->
<g id="edge6" class="edge">
<title>group_selection_submenu&#45;&gt;condition</title>
<path fill="none" stroke="#000000" d="M728.6388,-238.4741C740.5891,-230.4533 754.639,-220.7747 767,-211.6 778.1279,-203.3405 790.033,-193.9046 800.4645,-185.4248"/>
<polygon fill="#000000" stroke="#000000" points="802.9507,-187.9127 808.4714,-178.8699 798.5165,-182.4962 802.9507,-187.9127"/>
</g>
<!-- group_selection_submenu&#45;&gt;print_sample_results -->
<g id="edge7" class="edge">
<title>group_selection_submenu&#45;&gt;print_sample_results</title>
<path fill="none" stroke="#000000" d="M782.9342,-244.3697C818.0766,-237.3926 859.0086,-226.9004 894,-211.6 909.7207,-204.7259 925.6639,-194.4843 938.7846,-184.9941"/>
<polygon fill="#000000" stroke="#000000" points="941.032,-187.6845 946.9684,-178.909 936.8552,-182.0672 941.032,-187.6845"/>
</g>
<!-- group_selection_submenu&#45;&gt;get_current_selection -->
<g id="edge8" class="edge">
<title>group_selection_submenu&#45;&gt;get_current_selection</title>
<path fill="none" stroke="#000000" d="M782.8479,-250.1603C868.9913,-242.6273 998.4361,-228.9481 1045,-211.6 1061.9022,-205.3028 1078.8357,-194.7142 1092.5015,-184.8288"/>
<polygon fill="#000000" stroke="#000000" points="1094.6423,-187.5984 1100.5587,-178.8094 1090.4527,-181.9906 1094.6423,-187.5984"/>
</g>
<!-- group_selection_submenu&#45;&gt;call_sample_function -->
<g id="edge9" class="edge">
<title>group_selection_submenu&#45;&gt;call_sample_function</title>
<path fill="none" stroke="#000000" d="M782.6283,-254.1668C903.675,-249.7243 1124.4947,-238.1847 1199,-211.6 1215.646,-205.6604 1232.1308,-195.1457 1245.3879,-185.2175"/>
<polygon fill="#000000" stroke="#000000" points="1247.8555,-187.7324 1253.6028,-178.8319 1243.5595,-182.2057 1247.8555,-187.7324"/>
</g>
</g>
</svg>
